XboxReveal - 05 21 2013 - 1080p

General
ID                                       : 0 (0x0)
Complete name                            : X:HD PVR 2XboxReveal - 05 21 2013.M2TS
Format                                   : MPEG-TS
File size                                : 2.99 GiB
Duration                                 : 1h 6mn
Overall bit rate mode                    : Variable
Overall bit rate                         : 6 397 Kbps

Video
ID                                       : 4113 (0x1011)
Menu ID                                  : 1 (0x1)
Format                                   : AVC
Format/Info                              : Advanced Video Codec
Format profile                           : High@L4.0
Format settings, CABAC                   : Yes
Format settings, ReFrames                : 3 frames
Codec ID                                 : 27
Duration                                 : 1h 6mn
Bit rate                                 : 5 984 Kbps
Width                                    : 1 920 pixels
Height                                   : 1 080 pixels
Display aspect ratio                     : 16:9
Frame rate                               : 29.970 fps
Standard                                 : Component
Color space                              : YUV
Chroma subsampling                       : 4:2:0
Bit depth                                : 8 bits
Scan type                                : Progressive
Bits/(Pixel*Frame)                       : 0.096
Stream size                              : 2.79 GiB (94%)
Color primaries                          : BT.709
Transfer characteristics                 : BT.709
Matrix coefficients                      : BT.709

Audio
ID                                       : 4352 (0x1100)
Menu ID                                  : 1 (0x1)
Format                                   : AAC
Format/Info                              : Advanced Audio Codec
Format version                           : Version 2
Format profile                           : LC
Muxing mode                              : ADTS
Codec ID                                 : 15
Duration                                 : 1h 6mn
Bit rate mode                            : Variable
Bit rate                                 : 96.0 Kbps
Channel(s)                               : 2 channels
Channel positions                        : Front: L R
Sampling rate                            : 48.0 KHz
Compression mode                         : Lossy
Delay relative to video                  : 6ms
Stream size                              : 45.9 MiB (1%)

